<svg version="1.1" xmlns="http://www.w3.org/2000/svg" xmlns:xlink="http://www.w3.org/1999/xlink" width="25.68299" height="25.55555" viewBox="0,0,25.68299,25.55555"><g transform="translate(-227.15851,-167.13551)"><g data-paper-data="{&quot;isPaintingLayer&quot;:true}" fill-rule="nonzero" stroke-linecap="butt" stroke-linejoin="miter" stroke-miterlimit="10" stroke-dasharray="" stroke-dashoffset="0" style="mix-blend-mode: normal"><g><path d="M246.88889,180c0,3.80463 -3.08426,6.88889 -6.88889,6.88889c-3.80463,0 -6.88889,-3.08426 -6.88889,-6.88889c0,-3.80463 3.08426,-6.88889 6.88889,-6.88889c3.80463,0 6.88889,3.08426 6.88889,6.88889z" fill="none" stroke="#eaeaea" stroke-width="5"/><g fill="#eaeaea" stroke="none" stroke-width="0"><g><g><path d="M237.17778,175.46884v-8.33333h6v8.33333z"/><path d="M236.95556,192.69106v-8.33333h6v8.33333z"/></g><g><path d="M244.38154,177.01656l8.33142,-0.17852l0.12854,5.99862l-8.33142,0.17852z"/><path d="M227.15851,177.16334l8.33142,-0.17852l0.12854,5.99862l-8.33142,0.17852z"/></g></g><g><g><path d="M241.25314,174.83847l6.0646,-5.71533l4.11504,4.36651l-6.0646,5.71533z"/><path d="M228.56722,186.48844l6.06461,-5.71533l4.11504,4.36651l-6.06461,5.71533z"/></g><g><path d="M245.06741,181.14251l5.84394,5.94077l-4.27736,4.20764l-5.84394,-5.94077z"/><path d="M233.14834,168.70908l5.84395,5.94078l-4.27736,4.20764l-5.84394,-5.94077z"/></g></g></g></g></g></g></svg>